<?xml version="1.0" encoding="UTF-8"?>
<!DOCTYPE svg PUBLIC "-//W3C//DTD SVG 1.1//EN" "http://www.w3.org/Graphics/SVG/1.1/DTD/svg11.dtd">
<!-- Creator: CorelDRAW X8 -->
<svg xmlns="http://www.w3.org/2000/svg" xml:space="preserve" width="100.938mm" height="25mm" version="1.1" style="shape-rendering:geometricPrecision; text-rendering:geometricPrecision; image-rendering:optimizeQuality; fill-rule:evenodd; clip-rule:evenodd"
viewBox="0 0 10094 2500"
 xmlns:xlink="http://www.w3.org/1999/xlink">
 <defs>
  <style type="text/css">
   <![CDATA[
    .fil0 {fill:#302D34;fill-rule:nonzero}
   ]]>
  </style>
 </defs>
 <g id="Camada_x0020_1">
  <metadata id="CorelCorpID_0Corel-Layer"/>
  <path class="fil0" d="M4798 316l-737 1474 -87 0 -532 -1064 -268 0 -532 1064 -87 0 -710 -1419 -780 0 70 -142 797 0 666 1332 489 -977 442 0 489 977 780 -1561 0 316zm695 775l269 0 -127 -443 -13 0 -129 443zm21 1409l-219 -852 157 0 122 490c4,19 10,44 16,77 6,33 12,71 18,113 2,-42 12,-96 28,-161 3,-12 5,-20 6,-25l124 -494 137 0 118 490c5,19 10,44 16,77 6,33 12,71 19,114 2,-28 6,-57 11,-88 5,-31 12,-63 21,-99l124 -494 158 0 -220 852 -177 0 -106 -426c-10,-40 -17,-75 -23,-105 -6,-31 -10,-59 -12,-85 -5,39 -11,75 -17,107 -5,32 -11,59 -16,80l-109 429 -176 0zm1030 -852l161 0 0 852 -161 0 0 -852zm405 852l0 -852 171 0 245 428c19,33 36,67 52,101 16,34 31,68 44,103 -4,-25 -7,-52 -9,-81 -2,-29 -3,-60 -3,-92l0 -459 149 0 0 852 -149 0 -266 -439c-15,-25 -30,-55 -46,-90 -16,-34 -33,-73 -50,-115 4,23 7,49 8,77 2,27 3,60 3,96l0 471 -149 0zm875 0l0 -852 171 0 245 428c19,33 36,67 52,101 16,34 31,68 44,103 -4,-25 -7,-52 -9,-81 -2,-29 -3,-60 -3,-92l0 -459 149 0 0 852 -149 0 -266 -439c-15,-25 -30,-55 -46,-90 -16,-34 -33,-73 -50,-115 4,23 7,49 8,77 2,27 3,60 3,96l0 471 -149 0zm882 0l0 -852 553 0 0 139 -394 0 0 201 287 0 0 136 -287 0 0 231 411 0 0 145 -570 0zm905 -480l140 0c51,0 89,-10 113,-29 24,-19 36,-49 36,-90 0,-40 -12,-70 -36,-89 -24,-19 -62,-29 -113,-29l-140 0 0 237zm-157 480l0 -852 289 0c108,0 188,21 240,63 53,42 79,106 79,192 0,55 -13,101 -40,138 -27,37 -66,63 -117,77l189 382 -172 0 -164 -346 -147 0 0 346 -157 0zm-4159 -1064l263 -852 144 0 262 852 -99 0 -77 -266 -317 0 -75 266 -101 0zm1324 0l-4 -94c-26,37 -58,64 -95,81 -36,18 -80,27 -130,27 -103,0 -184,-39 -244,-117 -60,-79 -89,-185 -89,-319 0,-141 29,-250 88,-328 59,-77 142,-116 249,-116 74,0 136,21 186,62 49,42 86,104 109,187l-96 19c-17,-62 -42,-109 -76,-140 -34,-31 -76,-47 -127,-47 -76,0 -134,31 -175,92 -41,62 -62,150 -62,264 0,114 22,203 64,266 43,64 103,95 179,95 63,0 114,-18 151,-55 37,-36 55,-86 55,-149l0 -61 -197 0 0 -81 295 0 0 414 -81 0zm287 0l0 -852 504 0 0 80 -409 0 0 285 290 0 0 79 -290 0 0 326 429 0 0 82 -524 0zm95 -923l115 -213 103 0 115 213 -64 0 -102 -142 -103 142 -64 0zm589 923l0 -852 134 0 391 664 0 -664 89 0 0 852 -73 0 -453 -754 0 754 -88 0zm1421 -256c-21,90 -56,157 -106,202 -50,45 -115,68 -194,68 -105,0 -186,-39 -243,-115 -57,-77 -85,-185 -85,-326 0,-137 28,-244 86,-322 57,-78 135,-117 234,-117 79,0 143,21 192,64 49,43 83,106 101,190l-86 23c-14,-64 -38,-113 -72,-146 -34,-34 -76,-51 -126,-51 -75,0 -133,31 -173,94 -41,63 -61,152 -61,269 0,113 21,201 62,263 41,62 99,92 174,92 56,0 102,-18 139,-53 36,-36 60,-88 72,-154l86 19zm160 -596l96 0 0 852 -96 0 0 -852zm453 507l268 0 -127 -443 -13 0 -128 443zm-198 345l263 -852 143 0 262 852 -99 0 -77 -266 -317 0 -75 266 -100 0zm-4628 -17l-469 939 -623 0 -354 -710 -87 0 -355 710 -623 0 -355 -710 -797 0 -354 710 -710 0 -71 142 868 0 355 -710 622 0 355 710 797 0 311 -623 311 623 797 0 382 -765 0 -316z"/>
 </g>
</svg>
